<?xml version="1.0" encoding="UTF-8" standalone="no" ?>
<!DOCTYPE svg PUBLIC "-//W3C//DTD SVG 1.1//EN" "http://www.w3.org/Graphics/SVG/1.1/DTD/svg11.dtd">
<svg xmlns="http://www.w3.org/2000/svg" xmlns:xlink="http://www.w3.org/1999/xlink" version="1.1" width="1280" height="1024" viewBox="0 0 1280 1024" xml:space="preserve">
<desc>Created with Fabric.js 4.4.0</desc>
<defs>
</defs>
<g transform="matrix(1 0 0 1 640 512)" id="background-logo"  >
<rect style="stroke: none; stroke-width: 0; stroke-dasharray: none; stroke-linecap: butt; stroke-dashoffset: 0; stroke-linejoin: miter; stroke-miterlimit: 4; fill: rgb(0,0,0); fill-rule: nonzero; opacity: 1;"  paint-order="stroke"  x="-640" y="-512" rx="0" ry="0" width="1280" height="1024" />
</g>
<g transform="matrix(1.9211538461538462 0 0 1.9211538461538462 689.4913591303539 783.8935169076797)" id="text-logo-path-group"  >
<g style=""  paint-order="stroke"   >
		<g transform="matrix(1 0 0 1 0 0)" id="text-logo-path-0"  >
<path style="stroke: none; stroke-width: 1; stroke-dasharray: none; stroke-linecap: butt; stroke-dashoffset: 0; stroke-linejoin: miter; stroke-miterlimit: 4; fill: rgb(255,255,255); fill-rule: nonzero; opacity: 1;"  paint-order="stroke"  transform=" translate(-177.78000000000003, 36.76)" d="M 3.59 -17.74 L 3.59 -17.74 L 3.59 -55.73 Q 3.59 -64.34 7.72 -69.29 Q 11.84 -74.24 20.05 -74.24 L 20.05 -74.24 Q 28.3 -74.24 32.48 -69.29 Q 36.66 -64.34 36.66 -55.73 L 36.66 -55.73 L 36.66 -49.48 L 28.86 -49.48 L 28.86 -56.19 Q 28.86 -66.8 20.25 -66.8 L 20.25 -66.8 Q 15.94 -66.8 13.79 -64.04 Q 11.64 -61.27 11.64 -56.19 L 11.64 -56.19 L 11.64 -17.33 Q 11.64 -12.25 13.79 -9.48 Q 15.94 -6.72 20.25 -6.72 L 20.25 -6.72 Q 28.86 -6.72 28.86 -17.33 L 28.86 -17.33 L 28.86 -32.04 L 21.33 -32.04 L 21.33 -39.38 L 36.66 -39.38 L 36.66 -17.74 Q 36.66 -9.13 32.48 -4.2 Q 28.3 0.72 20.05 0.72 L 20.05 0.72 Q 11.84 0.72 7.72 -4.2 Q 3.59 -9.13 3.59 -17.74 Z M 52.6 0 L 44.4 0 L 44.4 -73.52 L 60.75 -73.52 Q 69.27 -73.52 73.21 -69.29 Q 77.16 -65.06 77.16 -56.7 L 77.16 -56.7 L 77.16 -50.71 Q 77.16 -38.45 68.03 -35.58 L 68.03 -35.58 Q 72.91 -34.15 75.08 -30.27 Q 77.26 -26.4 77.26 -20.25 L 77.26 -20.25 L 77.26 -8.82 Q 77.26 -2.72 78.75 0 L 78.75 0 L 70.44 0 Q 69.06 -3.18 69.06 -8.92 L 69.06 -8.92 L 69.06 -20.46 Q 69.06 -26.46 66.39 -28.92 Q 63.73 -31.38 58.34 -31.38 L 58.34 -31.38 L 52.6 -31.38 L 52.6 0 Z M 52.6 -66.04 L 52.6 -38.86 L 58.65 -38.86 Q 63.88 -38.86 66.47 -41.04 Q 69.06 -43.22 69.06 -48.91 L 69.06 -48.91 L 69.06 -55.99 Q 69.06 -61.06 67.03 -63.55 Q 65.01 -66.04 60.55 -66.04 L 60.55 -66.04 L 52.6 -66.04 Z M 115.97 0 L 85.72 0 L 85.72 -73.52 L 115.97 -73.52 L 115.97 -66.04 L 93.93 -66.04 L 93.93 -40.96 L 111.87 -40.96 L 111.87 -33.58 L 93.93 -33.58 L 93.93 -7.43 L 115.97 -7.43 L 115.97 0 Z M 153.76 0 L 123.51 0 L 123.51 -73.52 L 153.76 -73.52 L 153.76 -66.04 L 131.71 -66.04 L 131.71 -40.96 L 149.66 -40.96 L 149.66 -33.58 L 131.71 -33.58 L 131.71 -7.43 L 153.76 -7.43 L 153.76 0 Z M 168.52 0 L 161.19 0 L 161.19 -73.52 L 171.6 -73.52 L 188.57 -20.35 L 188.57 -73.52 L 195.85 -73.52 L 195.85 0 L 187.34 0 L 168.52 -59.42 L 168.52 0 Z M 203.03 -17.64 L 203.03 -17.64 L 203.03 -21.84 L 210.72 -21.84 L 210.72 -17.23 Q 210.72 -6.72 219.33 -6.72 Q 227.94 -6.72 227.94 -17.23 L 227.94 -17.23 Q 227.94 -20.51 226.59 -23.38 Q 225.23 -26.25 223.07 -28.45 Q 220.92 -30.66 218.28 -32.79 Q 215.64 -34.91 213.02 -37.2 Q 210.41 -39.48 208.26 -42.02 Q 206.1 -44.55 204.74 -48.12 Q 203.39 -51.68 203.39 -55.88 L 203.39 -55.88 Q 203.39 -64.6 207.46 -69.42 Q 211.54 -74.24 219.64 -74.24 L 219.64 -74.24 Q 227.79 -74.24 231.89 -69.37 Q 235.99 -64.5 235.99 -55.88 L 235.99 -55.88 L 235.99 -53.88 L 228.25 -53.88 L 228.25 -56.29 Q 228.25 -66.8 219.84 -66.8 Q 211.44 -66.8 211.44 -56.4 L 211.44 -56.4 Q 211.44 -53.06 212.79 -50.17 Q 214.15 -47.27 216.33 -45.07 Q 218.51 -42.86 221.15 -40.73 Q 223.79 -38.61 226.43 -36.32 Q 229.07 -34.04 231.25 -31.51 Q 233.43 -28.97 234.79 -25.4 Q 236.15 -21.84 236.15 -17.64 L 236.15 -17.64 Q 236.15 -9.07 231.94 -4.18 Q 227.74 0.72 219.54 0.72 Q 211.33 0.72 207.18 -4.15 Q 203.03 -9.02 203.03 -17.64 Z M 242.61 -17.74 L 242.61 -17.74 L 242.61 -55.73 Q 242.61 -64.39 246.86 -69.32 Q 251.12 -74.24 259.37 -74.24 L 259.37 -74.24 Q 267.68 -74.24 271.98 -69.32 Q 276.29 -64.39 276.29 -55.73 L 276.29 -55.73 L 276.29 -17.74 Q 276.29 -9.18 271.98 -4.23 Q 267.68 0.72 259.37 0.72 L 259.37 0.72 Q 251.17 0.72 246.89 -4.23 Q 242.61 -9.18 242.61 -17.74 Z M 250.66 -56.19 L 250.66 -17.33 Q 250.66 -12.2 252.84 -9.46 Q 255.01 -6.72 259.37 -6.72 L 259.37 -6.72 Q 268.09 -6.72 268.09 -17.33 L 268.09 -17.33 L 268.09 -56.19 Q 268.09 -61.27 265.94 -64.04 Q 263.78 -66.8 259.37 -66.8 L 259.37 -66.8 Q 255.01 -66.8 252.84 -64.04 Q 250.66 -61.27 250.66 -56.19 L 250.66 -56.19 Z M 292.24 0 L 284.03 0 L 284.03 -73.52 L 313.21 -73.52 L 313.21 -66.04 L 292.24 -66.04 L 292.24 -39.27 L 309.1 -39.27 L 309.1 -31.84 L 292.24 -31.84 L 292.24 0 Z M 330.33 -66.04 L 316.79 -66.04 L 316.79 -73.52 L 351.97 -73.52 L 351.97 -66.04 L 338.38 -66.04 L 338.38 0 L 330.33 0 L 330.33 -66.04 Z" stroke-linecap="round" />
</g>
</g>
</g>
<g transform="matrix(1.9211538461538462 0 0 1.9211538461538462 888.5576956642857 884.4576865083409)" id="tagline-a3e2db80-1170-4cc4-ae31-efb326a5d7e4-logo-path-group"  >
<g style=""  paint-order="stroke"   >
		<g transform="matrix(1 0 0 1 0 0)" id="tagline-a3e2db80-1170-4cc4-ae31-efb326a5d7e4-logo-path-0"  >
<linearGradient id="SVGID_46258" gradientUnits="userSpaceOnUse" gradientTransform="matrix(1 0 0 1 0.23000000000000398 -13.24)"  x1="0" y1="0" x2="0" y2="21">
<stop offset="0%" style="stop-color:rgb(66,230,149);stop-opacity: 1"/>
<stop offset="100%" style="stop-color:rgb(59,178,184);stop-opacity: 1"/>
</linearGradient>
<path style="stroke: none; stroke-width: 0; stroke-dasharray: none; stroke-linecap: butt; stroke-dashoffset: 0; stroke-linejoin: miter; stroke-miterlimit: 4; fill: url(#SVGID_46258); fill-rule: nonzero; opacity: 1;"  paint-order="stroke"  transform=" translate(-68.23, 6.485)" d="M 9.94 -9.99 L 9.94 -13 L 0.23 -13 L 0.23 -9.99 L 3.52 -9.99 L 3.52 0 L 6.67 0 L 6.67 -9.99 Z M 13.95 -2.98 L 13.95 -5.15 L 18.47 -5.15 L 18.47 -8.13 L 13.95 -8.13 L 13.95 -9.99 L 18.92 -9.99 L 18.92 -13 L 10.77 -13 L 10.77 0 L 19.02 0 L 19.02 -2.98 Z M 19.84 -6.44 C 19.84 -2.74 22.88 0.27 26.54 0.27 C 28.99 0.27 31.31 -1.14 32.45 -3.31 L 29.66 -4.83 C 29.09 -3.67 27.83 -2.91 26.54 -2.91 C 24.6 -2.91 22.99 -4.52 22.99 -6.44 C 22.99 -8.38 24.62 -9.97 26.54 -9.97 C 27.83 -9.97 29.01 -9.29 29.64 -8.15 L 32.41 -9.63 C 31.25 -11.8 28.99 -13.13 26.54 -13.13 C 22.86 -13.13 19.84 -10.16 19.84 -6.44 Z M 41.93 -13 L 41.93 -8.15 L 36.73 -8.15 L 36.73 -13 L 33.55 -13 L 33.55 0 L 36.73 0 L 36.73 -5.15 L 41.93 -5.15 L 41.93 0 L 45.09 0 L 45.09 -13 Z M 54.83 -13 L 54.83 -6.38 L 50.62 -13 L 47.44 -13 L 47.44 0 L 50.62 0 L 50.62 -7.43 L 55.37 0 L 58.01 0 L 58.01 -13 Z M 66.1 0.27 C 69.82 0.27 72.79 -2.75 72.79 -6.44 C 72.79 -10.18 69.81 -13.13 66.1 -13.13 C 62.38 -13.13 59.39 -10.13 59.39 -6.44 C 59.39 -2.77 62.4 0.27 66.1 0.27 Z M 62.55 -6.44 C 62.55 -8.38 64.18 -9.97 66.1 -9.97 C 68.06 -9.97 69.62 -8.38 69.62 -6.44 C 69.62 -4.5 68.06 -2.91 66.1 -2.91 C 64.16 -2.91 62.55 -4.52 62.55 -6.44 Z M 77.35 -2.98 L 77.35 -13 L 74.18 -13 L 74.18 0 L 82.38 0 L 82.38 -2.98 Z M 89.34 0.27 C 93.06 0.27 96.03 -2.75 96.03 -6.44 C 96.03 -10.18 93.04 -13.13 89.34 -13.13 C 85.61 -13.13 82.63 -10.13 82.63 -6.44 C 82.63 -2.77 85.63 0.27 89.34 0.27 Z M 85.78 -6.44 C 85.78 -8.38 87.42 -9.97 89.34 -9.97 C 91.3 -9.97 92.85 -8.38 92.85 -6.44 C 92.85 -4.5 91.3 -2.91 89.34 -2.91 C 87.4 -2.91 85.78 -4.52 85.78 -6.44 Z M 110.12 -5.97 L 110.12 -7.26 L 102.94 -7.26 L 102.94 -4.26 L 106.29 -4.26 C 105.62 -3.4 104.61 -2.91 103.53 -2.91 C 101.59 -2.91 99.98 -4.52 99.98 -6.44 C 99.98 -8.38 101.61 -9.97 103.53 -9.97 C 104.71 -9.97 105.64 -9.46 106.36 -8.53 L 108.83 -10.49 C 107.54 -12.16 105.66 -13.13 103.53 -13.13 C 99.81 -13.13 96.82 -10.13 96.82 -6.44 C 96.82 -2.74 99.86 0.27 103.53 0.27 C 106.99 0.27 110.12 -2.43 110.12 -5.97 Z M 111.83 -13 L 111.83 0 L 115.01 0 L 115.01 -13 Z M 120.54 -2.98 L 120.54 -5.15 L 125.06 -5.15 L 125.06 -8.13 L 120.54 -8.13 L 120.54 -9.99 L 125.51 -9.99 L 125.51 -13 L 117.36 -13 L 117.36 0 L 125.61 0 L 125.61 -2.98 Z M 131.48 0.27 C 133.89 0.27 136.23 -1.08 136.23 -3.69 C 136.23 -6.25 134.22 -7.31 132.03 -7.98 C 131.44 -8.17 131 -8.34 130.72 -8.47 C 130.32 -8.66 130.04 -8.87 130.04 -9.35 C 130.04 -9.9 130.74 -10.11 131.18 -10.11 C 132.2 -10.11 132.72 -9.65 133.15 -8.76 L 135.85 -10.34 C 134.92 -12.25 133.3 -13.24 131.18 -13.24 C 128.86 -13.24 126.88 -11.74 126.88 -9.35 C 126.88 -6.9 128.63 -5.93 130.74 -5.3 C 131.4 -5.11 131.88 -4.94 132.2 -4.81 C 132.64 -4.64 133.08 -4.41 133.08 -3.88 C 133.08 -3.17 132.13 -2.83 131.56 -2.83 C 130.32 -2.83 129.47 -3.31 128.99 -4.48 L 126.33 -2.93 C 127.19 -0.74 129.2 0.27 131.48 0.27 Z" stroke-linecap="round" />
</g>
</g>
</g>
<g transform="matrix(2.062315558385128 0 0 2.062315558385128 691.3321542710256 405.20507959163047)" id="logo-logo"  >
<g style=""  paint-order="stroke"   >
		<g transform="matrix(0.27092898272552784 0 0 -0.27092898272552784 0 0)"  >
<linearGradient id="SVGID_3_46257" gradientUnits="userSpaceOnUse" gradientTransform="matrix(1 0 0 1 5518.044813030361 7686.120500627227)"  x1="0" y1="0" x2="0" y2="969">
<stop offset="0%" style="stop-color:rgb(66,230,149);stop-opacity: 1"/>
<stop offset="100%" style="stop-color:rgb(59,178,184);stop-opacity: 1"/>
</linearGradient>
<path style="stroke: none; stroke-width: 1; stroke-dasharray: none; stroke-linecap: butt; stroke-dashoffset: 0; stroke-linejoin: miter; stroke-miterlimit: 10; fill: url(#SVGID_3_46257); fill-rule: nonzero; opacity: 1;"  paint-order="stroke"  transform=" translate(-6120.687406515181, -8170.655250313614)" d="M 6607.07 8278.57 C 6542.84 8278.57 6490.7699999999995 8227.76 6490.7699999999995 8165 C 6490.7699999999995 8144.53 6496.33 8125.31 6506.0199999999995 8108.73 C 6419.339999999999 7995.61 6288.2699999999995 7950.07 6151.639999999999 7953.36 C 6019.889999999999 7956.53 5911.73 8010.69 5821.95 8103.219999999999 C 5817.32 8102.65 5812.5599999999995 8102.36 5807.79 8102.36 C 5743.55 8102.36 5691.47 8153.179999999999 5691.47 8215.93 C 5691.47 8278.630000000001 5743.55 8329.5 5807.79 8329.5 C 5871.98 8329.5 5924.1 8278.63 5924.1 8215.93 C 5924.1 8195.7 5918.63 8176.700000000001 5909.14 8160.25 C 5977.700000000001 8094.22 6056.75 8056.19 6154.08 8053.86 C 6296.0199999999995 8050.41 6372.34 8112.29 6385.11 8186.04 C 6398.92 8265.86 6338.349999999999 8359.69 6206.049999999999 8399.65 C 6014.2699999999995 8457.63 5767.499999999999 8446.07 5748.429999999999 8655.19 C 5516.9 8504.04 5446.049999999999 8138.22 5599.619999999999 7907.5 C 5705.8499999999985 7747.85 5906.709999999999 7653.62 6125.409999999999 7696.45 C 6249.019999999999 7720.63 6312.119999999999 7791.29 6362.839999999999 7885.0199999999995 C 6454.219999999999 7917.499999999999 6533.049999999999 7973.7699999999995 6591.969999999999 8052.419999999999 C 6596.9 8051.779999999999 6601.909999999999 8051.449999999999 6607.07 8051.449999999999 C 6671.28 8051.449999999999 6723.33 8102.299999999999 6723.33 8164.999999999999 C 6723.33 8227.759999999998 6671.28 8278.57 6607.07 8278.57 z M 6607.07 8124.34 C 6584.03 8124.34 6565.389999999999 8142.54 6565.389999999999 8165 C 6565.389999999999 8187.5 6584.03 8205.71 6607.07 8205.71 C 6630.08 8205.71 6648.719999999999 8187.499999999999 6648.719999999999 8164.999999999999 C 6648.719999999999 8142.539999999999 6630.079999999999 8124.339999999999 6607.07 8124.339999999999" stroke-linecap="round" />
</g>
		<g transform="matrix(0.27092898272552784 0 0 -0.27092898272552784 -84.78153857965458 -12.258176583493395)"  >
<path style="stroke: none; stroke-width: 1; stroke-dasharray: none; stroke-linecap: butt; stroke-dashoffset: 0; stroke-linejoin: miter; stroke-miterlimit: 10; fill: rgb(92,224,230); fill-rule: nonzero; opacity: 1;"  paint-order="stroke"  transform=" translate(-5807.76, -8215.9)" d="M 5766.1 8215.93 C 5766.1 8193.460000000001 5784.8 8175.21 5807.79 8175.21 C 5830.78 8175.21 5849.42 8193.46 5849.42 8215.93 C 5849.42 8238.380000000001 5830.78 8256.59 5807.79 8256.59 C 5784.8 8256.59 5766.1 8238.380000000001 5766.1 8215.93" stroke-linecap="round" />
</g>
		<g transform="matrix(0.27092898272552784 0 0 -0.27092898272552784 -23.636535124760144 74.76711708253342)"  >
<path style="stroke: none; stroke-width: 1; stroke-dasharray: none; stroke-linecap: butt; stroke-dashoffset: 0; stroke-linejoin: miter; stroke-miterlimit: 10; fill: rgb(28,255,0); fill-opacity: 0.13; fill-rule: nonzero; opacity: 1;"  paint-order="stroke"  transform=" translate(-6033.445311846425, -7894.690936458042)" d="M 5821.95 8103.22 C 5821.95 8103.22 5630.67 7949.2 5735.389999999999 7772.110000000001 C 5842.509999999999 7700.39 5979.879999999999 7667.960000000001 6125.41 7696.450000000001 C 6249.0199999999995 7720.630000000001 6312.12 7791.290000000001 6362.84 7885.02 C 6149.7 7821.81 5868.860000000001 7910.02 5821.95 8103.22" stroke-linecap="round" />
</g>
</g>
</g>
</svg>