<?xml version="1.0" encoding="UTF-8" standalone="no"?>
<!-- Created with Inkscape (http://www.inkscape.org/) -->

<svg
   width="932.83368mm"
   height="191.87276mm"
   viewBox="0 0 932.83368 191.87276"
   version="1.1"
   id="svg1"
   xml:space="preserve"
   xmlns="http://www.w3.org/2000/svg"
   xmlns:svg="http://www.w3.org/2000/svg"><defs
     id="defs1"><clipPath
       id="clip0_20_7644"><rect
         width="175"
         height="36"
         fill="#ffffff"
         id="rect9"
         x="0"
         y="0" /></clipPath></defs><g
     id="layer1"
     transform="translate(608.12083,-52.494875)"><g
       style="fill:none"
       id="g1"
       transform="matrix(5.3305214,0,0,5.3305214,-608.12842,52.482186)"><g
         clip-path="url(#clip0_20_7644)"
         id="g9"><path
           d="m 69.1614,5.08534 c 3.9375,0 6.3657,1.92971 7.6879,5.08536 h 5.5562 C 80.8232,4.19527 75.5271,0.00238037 69.4191,0.00238037 c -8.0573,0 -14.0535,6.19860963 -14.0535,13.91741963 0,7.7189 5.8503,13.9175 14.0535,13.9175 6.0326,0 11.2583,-4.0826 12.95,-9.9453 h -5.6657 c -1.434,3.0062 -3.8256,4.8623 -7.542,4.8623 -4.8198,0 -8.6455,-3.9722 -8.6455,-8.832 0,-4.85985 3.8257,-8.83206 8.6455,-8.83206 z"
           fill="#ffffff"
           id="path1"
           style="fill:#1c42e8;fill-opacity:1" /><path
           d="m 93.8826,8.53534 c -5.2986,0 -9.5277,4.30566 -9.5277,9.64856 0,5.3429 4.2316,9.6485 9.5277,9.6485 5.2962,0 9.5274,-4.3056 9.5274,-9.6485 0,-5.3429 -4.2312,-9.64856 -9.5274,-9.64856 z m 0,14.47406 c -2.6128,0 -4.5986,-2.1896 -4.5986,-4.8255 0,-2.6359 1.9858,-4.8255 4.5986,-4.8255 2.6129,0 4.6351,2.1896 4.6351,4.8255 0,2.6359 -2.0976,4.8255 -4.6351,4.8255 z"
           fill="#ffffff"
           id="path2"
           style="fill:#1c42e8;fill-opacity:1" /><path
           d="m 116.176,8.53534 c -2.501,0 -4.341,1.03964 -5.518,2.48626 V 8.90559 h -5.041 V 35.9975 h 5.041 V 25.6428 c 1.177,1.3731 3.129,2.1896 5.593,2.1896 3.938,0 8.83,-3.1164 8.83,-9.6485 0,-6.5321 -4.747,-9.64856 -8.903,-9.64856 z M 115.221,23.159 c -2.759,0 -4.708,-2.2264 -4.708,-5.0094 0,-2.783 1.949,-4.9727 4.708,-4.9727 2.758,0 4.929,2.1161 4.929,4.9727 0,2.8565 -2.098,5.0094 -4.929,5.0094 z"
           fill="#ffffff"
           id="path3"
           style="fill:#1c42e8;fill-opacity:1" /><path
           d="m 137.881,8.53534 c -2.501,0 -4.341,1.03964 -5.518,2.48626 V 8.90559 h -5.041 V 35.9975 h 5.041 V 25.6428 c 1.177,1.3731 3.128,2.1896 5.593,2.1896 3.937,0 8.83,-3.1164 8.83,-9.6485 0,-6.5321 -4.747,-9.64856 -8.903,-9.64856 z M 136.925,23.159 c -2.758,0 -4.708,-2.2264 -4.708,-5.0094 0,-2.783 1.95,-4.9727 4.708,-4.9727 2.759,0 4.93,2.1161 4.93,4.9727 0,2.8565 -2.098,5.0094 -4.93,5.0094 z"
           fill="#ffffff"
           id="path4"
           style="fill:#1c42e8;fill-opacity:1" /><path
           d="m 158.188,8.53535 c -5.299,0 -9.528,4.30565 -9.528,9.64855 0,5.3429 3.716,9.6485 9.491,9.6485 4.747,0 7.8,-2.4495 9.27,-6.5688 h -5.371 c -0.625,1.3731 -1.804,2.2264 -3.862,2.2264 -2.538,0 -4.156,-1.4099 -4.708,-3.5995 h 14.238 v -1.633 c 0,-5.3454 -4.047,-9.7246 -9.528,-9.7246 z m -4.378,7.23825 c 0.846,-1.633 2.356,-2.7462 4.414,-2.7462 1.95,0 3.568,0.9268 4.268,2.7462 z"
           fill="#ffffff"
           id="path5"
           style="fill:#1c42e8;fill-opacity:1" /><path
           d="m 175,0.370239 h -5.041 V 27.4622 H 175 Z"
           fill="#ffffff"
           id="path6"
           style="fill:#1c42e8;fill-opacity:1" /><path
           d="m 16.4448,25.0576 c 3.7616,-3.7948 3.7616,-9.9474 0,-13.7422 -3.7617,-3.79484 -9.8605,-3.79484 -13.62214,0 -3.761648,3.7948 -3.761648,9.9474 0,13.7422 3.76164,3.7948 9.86044,3.7948 13.62214,0 z"
           fill="#f0d224"
           id="path7" /><path
           d="m 26.233,23.4116 c 2.87,0 5.1966,-2.3471 5.1966,-5.2424 0,-2.8952 -2.3266,-5.2423 -5.1966,-5.2423 -2.8699,0 -5.1965,2.3471 -5.1965,5.2423 0,2.8953 2.3266,5.2424 5.1965,5.2424 z"
           fill="#f0d224"
           id="path8" /><path
           d="m 39.2333,23.341 c 2.8329,-0.4639 4.7567,-3.1567 4.2968,-6.0146 -0.4598,-2.8578 -3.1291,-4.7985 -5.962,-4.3346 -2.8329,0.4639 -4.7566,3.1567 -4.2968,6.0145 0.4599,2.8579 3.1292,4.7986 5.962,4.3347 z"
           fill="#f0d224"
           id="path9" /></g></g></g></svg>
