<svg version="1.1" xmlns="http://www.w3.org/2000/svg" x="0" y="0" viewBox="0 0 1000 539.602" enable-background="new 0 0 1000 539.6016846" xml:space="preserve" width="2500" height="1349"><path fill="#EC0000" d="M575.144 151.104a75.1 75.1 0 0 0-10-34.341l-54.286-94.024A75.1 75.1 0 0 1 502.27 0L500 3.931a75.23 75.23 0 0 0 0 75.221l43.43 75.221a75.23 75.23 0 0 1 0 75.221l-2.27 3.931a75.1 75.1 0 0 0-8.587-22.734l-39.758-68.868-25.39-43.968a75.5 75.5 0 0 1-8.588-22.73l-2.265 3.927a75.22 75.22 0 0 0-.132 74.986h-.005l43.566 75.461a75.22 75.22 0 0 1 0 75.216l-2.27 3.931a75.1 75.1 0 0 0-8.587-22.734l-54.286-94.028a75.2 75.2 0 0 1-10-40.87c-58.119 15.185-98.224 47.423-98.224 84.75 0 51.933 77.618 94.028 173.367 94.028 95.75 0 173.367-42.095 173.367-94.028 0-37.327-40.11-69.575-98.224-84.76M0 531.185c.446-9.078 1.775-15.273 4.21-22.36 12.397 5.759 28.342 8.63 40.518 8.63 20.592 0 32.106-6.64 32.106-19.704 0-12.842-8.412-18.817-29.229-27.895l-11.293-4.873c-20.813-9.082-34.979-20.817-34.979-44.286 0-25.244 17.49-41.41 53.36-41.41 14.391 0 27.9 1.996 40.522 6.427-.666 8.852-2.215 15.72-4.426 22.14-11.96-4.43-26.13-6.42-36.317-6.42-19.263 0-28.12 7.528-28.12 19.263 0 11.514 8.636 18.156 24.135 24.797l11.96 5.093c28.121 11.96 39.85 24.582 39.85 46.056 0 25.464-19.258 42.959-56.903 42.959-18.155 0-32.988-2.657-45.394-8.417m221.212-105.841v110.714h-22.366l-1.328-13.284c-6.196 9.74-15.72 15.94-31.219 15.94-29.229 0-48.713-21.258-48.713-58.452 0-38.973 20.813-61.114 61.776-61.114 15.94 0 29.003 1.77 41.85 6.196m-24.36 85.47V441.29c-5.094-.888-10.627-1.328-17.49-1.328-25.244 0-36.978 15.503-36.978 40.301 0 22.582 9.078 38.527 30.777 38.527 9.524 0 17.274-3.098 23.69-7.975m149.026-49.154v74.398H321.52v-70.192c0-17.49-5.759-25.905-30.115-25.905-5.755 0-12.622.661-19.26 1.769v94.328h-24.36V425.344c15.498-3.765 32.551-6.196 44.286-6.196 40.743 0 53.806 15.72 53.806 42.512m67.54 56.242c7.083 0 13.73-1.328 19.043-3.318-.662 6.641-1.55 14.17-2.878 20.587-6.646 2.661-13.73 3.543-20.591 3.543-23.69 0-38.753-10.847-38.753-37.865V384.601c7.534-2.431 16.832-3.539 24.357-3.539v41.846h38.531c-.44 7.533-1.107 14.396-2.215 20.812h-36.316v54.252c0 14.396 7.092 19.93 18.822 19.93m130.644-92.558v110.714h-22.362l-1.328-13.284c-6.195 9.74-15.725 15.94-31.219 15.94-29.233 0-48.713-21.258-48.713-58.452 0-38.973 20.813-61.114 61.776-61.114 15.941 0 29.004 1.77 41.846 6.196m-24.352 85.47V441.29c-5.092-.888-10.631-1.328-17.494-1.328-25.243 0-36.978 15.503-36.978 40.301 0 22.582 9.078 38.527 30.778 38.527 9.519 0 17.273-3.098 23.694-7.975M668.73 461.66v74.398h-24.356v-70.192c0-17.49-5.76-25.905-30.111-25.905-5.76 0-12.627.661-19.263 1.769v94.328h-24.362V425.344c15.499-3.765 32.552-6.196 44.286-6.196 40.743 0 53.806 15.72 53.806 42.512m123.562-80.598v154.996h-22.367l-1.323-14.171c-6.206 10.406-15.725 16.827-31.665 16.827-29.229 0-48.713-21.258-48.713-58.452 0-38.973 20.812-61.114 61.776-61.114 6.42 0 12.396.662 18.156 1.77v-36.533c7.529-2.661 16.165-3.323 24.136-3.323m-24.136 129.311v-68.197c-6.417-1.328-13.064-2.215-19.484-2.215-24.137 0-35.65 15.057-35.65 40.301 0 22.582 9.082 38.527 30.777 38.527 9.745 0 17.72-3.323 24.357-8.416m146.584-21.7h-77.716c3.103 19.705 14.612 29.229 36.312 29.229 13.288 0 26.797-2.882 38.973-8.416-.883 6.426-2.216 14.837-3.765 22.145-11.067 5.093-22.807 7.083-35.87 7.083-40.743 0-60.448-22.586-60.448-60.447 0-32.993 15.28-59.12 54.027-59.12 34.767 0 49.82 22.804 49.82 50.709 0 6.862-.44 12.396-1.333 18.817m-78.157-20.371h54.913c0-18.156-9.744-28.783-26.571-28.783-17.27 0-26.352 9.96-28.342 28.783M1000 420.03c0 7.309-.887 16.166-2.216 20.818-5.755-.667-11.514-.887-18.376-.887q-8.971-.002-17.936 1.328v94.769h-24.356V425.344c10.406-3.54 27.896-6.196 41.625-6.196 7.53 0 15.945.22 21.259.882"/></svg>